<?xml version="1.0" encoding="UTF-8"?><svg xmlns="http://www.w3.org/2000/svg" xmlns:xlink="http://www.w3.org/1999/xlink" viewBox="490 185 380 380"><defs><linearGradient id="New_Gradient_Swatch_1" x1="495.47" y1="374.08" x2="865.22" y2="374.08" gradientUnits="userSpaceOnUse"><stop offset="0" stop-color="#87bd40"/><stop offset=".5" stop-color="#3053a1"/><stop offset="1" stop-color="#0f5b7f"/></linearGradient></defs><path d="M651.98,275.7c3.91,0,7.27,1.31,10.06,3.91,2.79,2.61,4.19,5.87,4.19,9.78,0,1.86-.47,3.91-1.4,6.15l-70.71,167.13c-1.49,3.17-3.49,5.5-6.01,6.99-2.52,1.49-5.08,2.24-7.69,2.24-2.61-.18-5.08-1.02-7.41-2.52-2.33-1.49-4.15-3.63-5.45-6.43l-70.71-167.41c-.56-.93-.93-1.91-1.12-2.93-.19-1.02-.28-2-.28-2.93,0-4.47,1.63-7.92,4.89-10.34,3.26-2.42,6.38-3.63,9.36-3.63,5.96,0,10.34,3.07,13.14,9.22l64,151.76h-8.11l60.37-152.03c2.61-5.96,6.89-8.94,12.86-8.94Z" fill="url(#New_Gradient_Swatch_1)"/><path d="M798.15,474.69c-14.35,0-27.62-2.56-39.83-7.69-12.21-5.12-22.96-12.3-32.28-21.52-9.32-9.22-16.58-19.89-21.8-32-5.22-12.11-7.83-25.25-7.83-39.41s2.61-27.29,7.83-39.41c5.21-12.11,12.48-22.78,21.8-32,9.31-9.22,20.07-16.39,32.28-21.52,12.2-5.12,25.48-7.69,39.83-7.69,9.13,0,17.93,1.03,26.41,3.07,8.48,2.05,16.25,5.03,23.34,8.94,2.42,1.31,4.19,3.03,5.31,5.17,1.12,2.14,1.68,4.33,1.68,6.57,0,3.73-1.31,7.04-3.91,9.92-2.61,2.89-5.78,4.33-9.5,4.33-1.31,0-2.61-.18-3.91-.56-1.31-.37-2.61-.84-3.91-1.4-5.22-2.42-10.81-4.38-16.77-5.87-5.96-1.49-12.21-2.24-18.72-2.24-13.42,0-25.53,3.26-36.33,9.78-10.81,6.52-19.33,15.23-25.57,26.13-6.25,10.9-9.36,23.15-9.36,36.75s3.12,25.67,9.36,36.75c6.24,11.09,14.76,19.84,25.57,26.27,10.8,6.43,22.92,9.64,36.33,9.64,6.52,0,13.41-.79,20.68-2.38,7.27-1.58,13.42-3.68,18.45-6.29l-2.24,7.55v-53.1l4.47,3.91h-36.61c-4.1,0-7.5-1.3-10.2-3.91-2.7-2.61-4.05-5.96-4.05-10.06s1.35-7.45,4.05-10.06c2.7-2.61,6.1-3.91,10.2-3.91h48.07c4.1,0,7.5,1.35,10.2,4.05,2.7,2.7,4.05,6.1,4.05,10.2v62.04c0,2.98-.75,5.5-2.24,7.55-1.49,2.05-3.17,3.73-5.03,5.03-8.57,5.22-17.93,9.41-28.09,12.58-10.16,3.17-20.73,4.75-31.72,4.75Z" fill="url(#New_Gradient_Swatch_1)"/></svg>